<svg xmlns="http://www.w3.org/2000/svg" xmlns:xlink="http://www.w3.org/1999/xlink" width="400" zoomAndPan="magnify" viewBox="0 0 300 299.999988" height="400" preserveAspectRatio="xMidYMid meet" version="1.0"><path fill="#0f172a" d="M 157.46875 56.425781 L 157.46875 51.765625 C 157.46875 51.199219 157.414062 50.640625 157.300781 50.085938 C 157.191406 49.53125 157.027344 48.992188 156.8125 48.46875 C 156.59375 47.945312 156.332031 47.449219 156.015625 46.980469 C 155.703125 46.507812 155.34375 46.074219 154.945312 45.671875 C 154.542969 45.273438 154.109375 44.914062 153.636719 44.601562 C 153.167969 44.285156 152.671875 44.019531 152.148438 43.804688 C 151.625 43.589844 151.085938 43.425781 150.53125 43.316406 C 149.976562 43.203125 149.417969 43.148438 148.851562 43.148438 C 148.285156 43.148438 147.726562 43.203125 147.171875 43.316406 C 146.613281 43.425781 146.078125 43.589844 145.554688 43.804688 C 145.03125 44.019531 144.535156 44.285156 144.0625 44.601562 C 143.59375 44.914062 143.15625 45.273438 142.757812 45.671875 C 142.359375 46.074219 142 46.507812 141.6875 46.980469 C 141.371094 47.449219 141.105469 47.945312 140.890625 48.46875 C 140.671875 48.992188 140.511719 49.53125 140.398438 50.085938 C 140.289062 50.640625 140.234375 51.199219 140.234375 51.765625 L 140.234375 56.425781 C 140.234375 56.992188 140.289062 57.550781 140.398438 58.105469 C 140.511719 58.660156 140.671875 59.199219 140.890625 59.722656 C 141.105469 60.246094 141.371094 60.742188 141.6875 61.210938 C 142 61.683594 142.359375 62.117188 142.757812 62.519531 C 143.15625 62.917969 143.59375 63.277344 144.0625 63.589844 C 144.535156 63.90625 145.03125 64.171875 145.554688 64.386719 C 146.078125 64.601562 146.613281 64.765625 147.171875 64.878906 C 147.726562 64.988281 148.285156 65.042969 148.851562 65.042969 C 149.417969 65.042969 149.976562 64.988281 150.53125 64.878906 C 151.085938 64.765625 151.625 64.601562 152.148438 64.386719 C 152.671875 64.171875 153.167969 63.90625 153.636719 63.589844 C 154.109375 63.277344 154.542969 62.917969 154.945312 62.519531 C 155.34375 62.117188 155.703125 61.683594 156.015625 61.210938 C 156.332031 60.742188 156.59375 60.246094 156.8125 59.722656 C 157.027344 59.199219 157.191406 58.660156 157.300781 58.105469 C 157.414062 57.550781 157.46875 56.992188 157.46875 56.425781 Z M 157.46875 56.425781 " fill-opacity="1" fill-rule="nonzero"/><path fill="#0f172a" d="M 148.851562 233.234375 C 148.28125 233.234375 147.71875 233.289062 147.160156 233.402344 C 146.605469 233.511719 146.0625 233.675781 145.539062 233.894531 C 145.015625 234.113281 144.515625 234.382812 144.042969 234.699219 C 143.570312 235.015625 143.136719 235.375 142.734375 235.78125 C 142.335938 236.183594 141.976562 236.621094 141.664062 237.097656 C 141.351562 237.570312 141.085938 238.070312 140.871094 238.597656 C 140.65625 239.125 140.496094 239.667969 140.386719 240.226562 C 140.28125 240.78125 140.230469 241.347656 140.234375 241.914062 L 140.234375 246.574219 C 140.234375 247.140625 140.289062 247.699219 140.398438 248.253906 C 140.511719 248.808594 140.671875 249.347656 140.890625 249.871094 C 141.105469 250.394531 141.371094 250.890625 141.6875 251.363281 C 142 251.832031 142.359375 252.265625 142.757812 252.667969 C 143.15625 253.066406 143.59375 253.425781 144.0625 253.738281 C 144.535156 254.054688 145.03125 254.320312 145.554688 254.535156 C 146.078125 254.753906 146.613281 254.914062 147.171875 255.027344 C 147.726562 255.136719 148.285156 255.191406 148.851562 255.191406 C 149.417969 255.191406 149.976562 255.136719 150.53125 255.027344 C 151.085938 254.914062 151.625 254.753906 152.148438 254.535156 C 152.671875 254.320312 153.167969 254.054688 153.636719 253.738281 C 154.109375 253.425781 154.542969 253.066406 154.945312 252.667969 C 155.34375 252.265625 155.703125 251.832031 156.015625 251.363281 C 156.332031 250.890625 156.59375 250.394531 156.8125 249.871094 C 157.027344 249.347656 157.191406 248.808594 157.300781 248.253906 C 157.414062 247.699219 157.46875 247.140625 157.46875 246.574219 L 157.46875 241.914062 C 157.476562 241.34375 157.429688 240.78125 157.324219 240.21875 C 157.21875 239.660156 157.0625 239.117188 156.847656 238.585938 C 156.636719 238.058594 156.371094 237.558594 156.058594 237.082031 C 155.746094 236.605469 155.386719 236.164062 154.984375 235.761719 C 154.585938 235.355469 154.148438 234.996094 153.675781 234.679688 C 153.199219 234.363281 152.699219 234.09375 152.171875 233.878906 C 151.648438 233.660156 151.105469 233.5 150.542969 233.390625 C 149.984375 233.28125 149.421875 233.230469 148.851562 233.234375 Z M 148.851562 233.234375 " fill-opacity="1" fill-rule="nonzero"/><path fill="#0f172a" d="M 241.53125 140.488281 C 240.964844 140.488281 240.40625 140.542969 239.851562 140.65625 C 239.296875 140.765625 238.757812 140.929688 238.234375 141.144531 C 237.710938 141.363281 237.214844 141.628906 236.746094 141.941406 C 236.273438 142.257812 235.839844 142.613281 235.4375 143.011719 C 235.039062 143.414062 234.679688 143.847656 234.367188 144.320312 C 234.050781 144.789062 233.789062 145.285156 233.570312 145.808594 C 233.355469 146.332031 233.191406 146.871094 233.082031 147.425781 C 232.96875 147.980469 232.914062 148.539062 232.914062 149.105469 C 232.914062 149.671875 232.96875 150.234375 233.082031 150.789062 C 233.191406 151.34375 233.355469 151.882812 233.570312 152.402344 C 233.789062 152.925781 234.050781 153.421875 234.367188 153.894531 C 234.679688 154.363281 235.039062 154.800781 235.4375 155.199219 C 235.839844 155.597656 236.273438 155.957031 236.746094 156.269531 C 237.214844 156.585938 237.710938 156.851562 238.234375 157.066406 C 238.757812 157.285156 239.296875 157.449219 239.851562 157.558594 C 240.40625 157.667969 240.964844 157.722656 241.53125 157.722656 L 246.253906 157.722656 C 246.820312 157.722656 247.382812 157.667969 247.9375 157.558594 C 248.492188 157.449219 249.03125 157.285156 249.554688 157.066406 C 250.074219 156.851562 250.570312 156.585938 251.042969 156.269531 C 251.511719 155.957031 251.949219 155.597656 252.347656 155.199219 C 252.75 154.800781 253.105469 154.363281 253.421875 153.894531 C 253.734375 153.421875 254 152.925781 254.214844 152.402344 C 254.433594 151.882812 254.597656 151.34375 254.707031 150.789062 C 254.816406 150.234375 254.871094 149.671875 254.871094 149.105469 C 254.871094 148.539062 254.816406 147.980469 254.707031 147.425781 C 254.597656 146.871094 254.433594 146.332031 254.214844 145.808594 C 254 145.285156 253.734375 144.789062 253.421875 144.320312 C 253.105469 143.847656 252.75 143.414062 252.347656 143.011719 C 251.949219 142.613281 251.511719 142.257812 251.042969 141.941406 C 250.570312 141.628906 250.074219 141.363281 249.554688 141.144531 C 249.03125 140.929688 248.492188 140.765625 247.9375 140.65625 C 247.382812 140.542969 246.820312 140.488281 246.253906 140.488281 Z M 241.53125 140.488281 " fill-opacity="1" fill-rule="nonzero"/><path fill="#0f172a" d="M 51.511719 140.488281 C 50.945312 140.488281 50.382812 140.542969 49.828125 140.65625 C 49.273438 140.765625 48.734375 140.929688 48.214844 141.144531 C 47.691406 141.363281 47.195312 141.628906 46.722656 141.941406 C 46.253906 142.257812 45.816406 142.613281 45.417969 143.011719 C 45.015625 143.414062 44.660156 143.847656 44.347656 144.320312 C 44.03125 144.789062 43.765625 145.285156 43.550781 145.808594 C 43.332031 146.332031 43.167969 146.871094 43.058594 147.425781 C 42.949219 147.980469 42.894531 148.539062 42.894531 149.105469 C 42.894531 149.671875 42.949219 150.234375 43.058594 150.789062 C 43.167969 151.34375 43.332031 151.882812 43.550781 152.402344 C 43.765625 152.925781 44.03125 153.421875 44.347656 153.894531 C 44.660156 154.363281 45.015625 154.800781 45.417969 155.199219 C 45.816406 155.597656 46.253906 155.957031 46.722656 156.269531 C 47.195312 156.585938 47.691406 156.851562 48.214844 157.066406 C 48.734375 157.285156 49.273438 157.449219 49.828125 157.558594 C 50.382812 157.667969 50.945312 157.722656 51.511719 157.722656 L 56.171875 157.722656 C 56.734375 157.722656 57.296875 157.667969 57.851562 157.558594 C 58.40625 157.449219 58.945312 157.285156 59.46875 157.066406 C 59.992188 156.851562 60.488281 156.585938 60.957031 156.269531 C 61.429688 155.957031 61.863281 155.597656 62.261719 155.199219 C 62.664062 154.800781 63.019531 154.363281 63.335938 153.894531 C 63.648438 153.421875 63.914062 152.925781 64.132812 152.402344 C 64.347656 151.882812 64.511719 151.34375 64.621094 150.789062 C 64.730469 150.234375 64.789062 149.671875 64.789062 149.105469 C 64.789062 148.539062 64.730469 147.980469 64.621094 147.425781 C 64.511719 146.871094 64.347656 146.332031 64.132812 145.808594 C 63.914062 145.285156 63.648438 144.789062 63.335938 144.320312 C 63.019531 143.847656 62.664062 143.414062 62.261719 143.011719 C 61.863281 142.613281 61.429688 142.257812 60.957031 141.941406 C 60.488281 141.628906 59.992188 141.363281 59.46875 141.144531 C 58.945312 140.929688 58.40625 140.765625 57.851562 140.65625 C 57.296875 140.542969 56.734375 140.488281 56.171875 140.488281 Z M 51.511719 140.488281 " fill-opacity="1" fill-rule="nonzero"/><path fill="#0f172a" d="M 275.617188 103.085938 C 275.429688 102.550781 275.1875 102.039062 274.898438 101.550781 C 274.605469 101.0625 274.269531 100.609375 273.890625 100.191406 C 273.507812 99.769531 273.089844 99.390625 272.632812 99.054688 C 272.175781 98.714844 271.691406 98.425781 271.179688 98.1875 C 270.664062 97.945312 270.132812 97.757812 269.582031 97.625 C 269.03125 97.488281 268.472656 97.410156 267.902344 97.386719 C 267.335938 97.363281 266.773438 97.398438 266.214844 97.484375 C 265.652344 97.574219 265.105469 97.71875 264.574219 97.914062 C 264.042969 98.105469 263.535156 98.351562 263.046875 98.644531 C 262.5625 98.9375 262.113281 99.273438 261.695312 99.65625 C 261.277344 100.035156 260.898438 100.457031 260.5625 100.910156 C 260.226562 101.367188 259.941406 101.851562 259.699219 102.363281 C 259.460938 102.878906 259.273438 103.410156 259.136719 103.957031 C 259.003906 104.507812 258.921875 105.066406 258.894531 105.632812 C 258.871094 106.195312 258.902344 106.761719 258.984375 107.320312 C 259.070312 107.878906 259.210938 108.425781 259.402344 108.957031 C 264.15625 121.917969 266.519531 135.300781 266.488281 149.105469 C 266.492188 151.367188 266.429688 153.621094 266.300781 155.878906 C 266.171875 158.132812 265.980469 160.382812 265.722656 162.628906 C 265.464844 164.871094 265.144531 167.105469 264.757812 169.332031 C 264.371094 171.558594 263.921875 173.773438 263.410156 175.972656 C 262.894531 178.171875 262.320312 180.355469 261.679688 182.523438 C 261.042969 184.6875 260.339844 186.835938 259.578125 188.960938 C 258.816406 191.089844 257.992188 193.191406 257.109375 195.269531 C 256.226562 197.347656 255.28125 199.402344 254.28125 201.425781 C 253.277344 203.449219 252.21875 205.445312 251.101562 207.410156 C 249.984375 209.371094 248.8125 211.300781 247.585938 213.199219 C 246.359375 215.09375 245.074219 216.953125 243.742188 218.777344 C 242.40625 220.597656 241.019531 222.382812 239.582031 224.125 C 238.144531 225.867188 236.660156 227.566406 235.121094 229.222656 C 233.585938 230.878906 232.003906 232.492188 230.378906 234.058594 C 228.75 235.625 227.078125 237.140625 225.363281 238.613281 C 223.644531 240.082031 221.890625 241.5 220.09375 242.867188 C 218.292969 244.238281 216.460938 245.554688 214.585938 246.816406 C 212.714844 248.078125 210.804688 249.285156 208.863281 250.441406 C 206.921875 251.59375 204.945312 252.6875 202.941406 253.726562 C 200.933594 254.769531 198.902344 255.75 196.839844 256.671875 C 194.777344 257.59375 192.6875 258.457031 190.578125 259.257812 C 188.464844 260.058594 186.332031 260.800781 184.175781 261.480469 C 182.023438 262.160156 179.851562 262.773438 177.660156 263.328125 C 175.46875 263.882812 173.265625 264.375 171.046875 264.800781 C 168.828125 265.230469 166.601562 265.59375 164.363281 265.890625 C 162.121094 266.191406 159.875 266.425781 157.625 266.59375 C 155.371094 266.761719 153.117188 266.867188 150.855469 266.90625 C 148.597656 266.949219 146.339844 266.921875 144.082031 266.832031 C 141.824219 266.742188 139.574219 266.585938 137.324219 266.367188 C 135.078125 266.144531 132.835938 265.863281 130.605469 265.511719 C 128.371094 265.164062 126.152344 264.75 123.945312 264.273438 C 121.734375 263.796875 119.542969 263.257812 117.367188 262.65625 C 115.1875 262.050781 113.03125 261.386719 110.890625 260.660156 C 108.753906 259.929688 106.636719 259.144531 104.542969 258.292969 C 102.449219 257.445312 100.382812 256.535156 98.34375 255.566406 C 96.300781 254.601562 94.289062 253.574219 92.308594 252.488281 C 90.324219 251.40625 88.375 250.265625 86.460938 249.070312 C 84.542969 247.875 82.664062 246.621094 80.820312 245.316406 C 78.976562 244.015625 77.167969 242.65625 75.402344 241.25 C 73.636719 239.839844 71.914062 238.382812 70.230469 236.875 C 68.546875 235.367188 66.910156 233.8125 65.316406 232.210938 C 63.726562 230.609375 62.179688 228.960938 60.683594 227.269531 C 59.183594 225.578125 57.734375 223.847656 56.335938 222.070312 C 54.941406 220.296875 53.59375 218.484375 52.300781 216.632812 C 51.007812 214.78125 49.765625 212.894531 48.582031 210.96875 C 47.394531 209.046875 46.269531 207.089844 45.195312 205.101562 C 44.121094 203.113281 43.109375 201.097656 42.152344 199.050781 C 41.195312 197.003906 40.300781 194.929688 39.460938 192.832031 C 38.625 190.734375 37.847656 188.613281 37.132812 186.472656 C 36.417969 184.328125 35.765625 182.167969 35.175781 179.984375 C 34.585938 177.804688 34.058594 175.609375 33.59375 173.398438 C 33.128906 171.1875 32.730469 168.964844 32.394531 166.730469 C 32.058594 164.496094 31.785156 162.253906 31.578125 160.007812 C 31.375 157.757812 31.230469 155.503906 31.152344 153.246094 C 31.078125 150.988281 31.066406 148.730469 31.117188 146.472656 C 31.171875 144.210938 31.289062 141.957031 31.46875 139.707031 C 31.652344 137.453125 31.902344 135.210938 32.210938 132.972656 C 32.523438 130.734375 32.902344 128.507812 33.339844 126.292969 C 33.78125 124.078125 34.285156 121.875 34.851562 119.6875 C 35.417969 117.5 36.046875 115.332031 36.738281 113.183594 C 37.429688 111.03125 38.183594 108.902344 39 106.796875 C 39.8125 104.6875 40.6875 102.605469 41.621094 100.550781 C 42.554688 98.492188 43.546875 96.464844 44.597656 94.464844 C 45.648438 92.464844 46.757812 90.496094 47.921875 88.5625 C 49.085938 86.625 50.304688 84.726562 51.578125 82.859375 C 52.851562 80.992188 54.179688 79.164062 55.558594 77.375 C 56.9375 75.585938 58.367188 73.839844 59.84375 72.132812 C 61.324219 70.425781 62.851562 68.761719 64.429688 67.140625 C 66.003906 65.523438 67.625 63.949219 69.289062 62.425781 C 70.957031 60.898438 72.664062 59.421875 74.414062 57.996094 C 76.167969 56.566406 77.957031 55.191406 79.789062 53.867188 C 81.617188 52.542969 83.484375 51.273438 85.386719 50.054688 C 87.289062 48.839844 89.226562 47.679688 91.199219 46.574219 C 93.167969 45.46875 95.167969 44.417969 97.199219 43.429688 C 99.230469 42.4375 101.285156 41.507812 103.371094 40.636719 C 105.453125 39.765625 107.5625 38.953125 109.691406 38.203125 C 111.824219 37.453125 113.972656 36.765625 116.144531 36.136719 C 118.316406 35.511719 120.503906 34.949219 122.703125 34.449219 C 124.90625 33.945312 127.125 33.511719 129.351562 33.136719 C 131.578125 32.765625 133.816406 32.457031 136.0625 32.210938 C 138.308594 31.96875 140.558594 31.789062 142.816406 31.671875 C 145.070312 31.558594 147.328125 31.507812 149.589844 31.523438 C 151.847656 31.539062 154.105469 31.621094 156.359375 31.765625 C 158.613281 31.910156 160.859375 32.121094 163.101562 32.394531 C 165.34375 32.671875 167.578125 33.007812 169.800781 33.414062 C 172.023438 33.816406 174.234375 34.28125 176.429688 34.8125 C 178.625 35.34375 180.804688 35.9375 182.964844 36.59375 C 185.125 37.25 187.269531 37.964844 189.386719 38.746094 C 191.507812 39.523438 193.605469 40.363281 195.675781 41.265625 C 197.75 42.164062 199.792969 43.125 201.808594 44.140625 C 203.828125 45.160156 205.8125 46.234375 207.769531 47.367188 C 209.722656 48.496094 211.644531 49.683594 213.53125 50.925781 C 215.417969 52.171875 217.265625 53.464844 219.078125 54.816406 C 220.890625 56.164062 222.660156 57.566406 224.394531 59.015625 C 226.125 60.464844 227.8125 61.964844 229.457031 63.515625 C 231.101562 65.0625 232.703125 66.65625 234.253906 68.296875 L 149.171875 137.746094 L 123 113.808594 C 122.625 113.460938 122.21875 113.148438 121.785156 112.875 C 121.355469 112.601562 120.902344 112.367188 120.425781 112.171875 C 119.953125 111.980469 119.464844 111.832031 118.960938 111.726562 C 118.460938 111.621094 117.953125 111.558594 117.441406 111.542969 C 116.929688 111.53125 116.421875 111.5625 115.914062 111.636719 C 115.410156 111.714844 114.914062 111.835938 114.429688 112.003906 C 113.945312 112.167969 113.476562 112.375 113.03125 112.625 C 112.582031 112.875 112.160156 113.164062 111.765625 113.488281 C 111.367188 113.8125 111 114.167969 110.664062 114.558594 C 110.328125 114.949219 110.03125 115.363281 109.769531 115.804688 C 109.507812 116.25 109.289062 116.710938 109.109375 117.191406 C 108.929688 117.675781 108.796875 118.167969 108.707031 118.671875 C 108.617188 119.179688 108.570312 119.6875 108.574219 120.203125 C 108.574219 120.71875 108.621094 121.226562 108.714844 121.730469 C 108.804688 122.238281 108.941406 122.730469 109.121094 123.210938 C 109.300781 123.691406 109.523438 124.15625 109.789062 124.597656 L 141.703125 177.636719 C 142.394531 178.78125 143.296875 179.714844 144.417969 180.445312 C 145.539062 181.171875 146.761719 181.621094 148.085938 181.789062 L 149.105469 181.789062 C 150.308594 181.820312 151.460938 181.605469 152.574219 181.152344 C 153.683594 180.695312 154.65625 180.035156 155.488281 179.171875 L 274.789062 57.894531 C 275.207031 57.511719 275.582031 57.09375 275.917969 56.636719 C 276.253906 56.183594 276.542969 55.699219 276.785156 55.183594 C 277.027344 54.671875 277.214844 54.140625 277.351562 53.589844 C 277.488281 53.042969 277.570312 52.484375 277.59375 51.917969 C 277.621094 51.351562 277.59375 50.789062 277.507812 50.230469 C 277.425781 49.667969 277.285156 49.121094 277.09375 48.589844 C 276.902344 48.058594 276.660156 47.546875 276.367188 47.0625 C 276.074219 46.578125 275.738281 46.125 275.355469 45.707031 C 274.976562 45.289062 274.558594 44.910156 274.101562 44.574219 C 273.644531 44.238281 273.164062 43.949219 272.648438 43.707031 C 272.136719 43.464844 271.605469 43.277344 271.058594 43.140625 C 270.507812 43.003906 269.949219 42.921875 269.382812 42.894531 C 268.816406 42.867188 268.253906 42.894531 267.695312 42.980469 C 267.132812 43.0625 266.585938 43.203125 266.054688 43.394531 C 265.523438 43.585938 265.011719 43.828125 264.527344 44.117188 C 264.042969 44.410156 263.589844 44.746094 263.171875 45.128906 L 248.105469 57.445312 C 246.238281 55.445312 244.308594 53.503906 242.320312 51.621094 C 240.332031 49.738281 238.289062 47.917969 236.191406 46.160156 C 234.089844 44.40625 231.941406 42.714844 229.738281 41.085938 C 227.535156 39.460938 225.28125 37.90625 222.984375 36.417969 C 220.6875 34.929688 218.34375 33.515625 215.960938 32.171875 C 213.574219 30.828125 211.148438 29.554688 208.6875 28.359375 C 206.222656 27.164062 203.726562 26.046875 201.195312 25.003906 C 198.664062 23.960938 196.101562 22.996094 193.511719 22.113281 C 190.921875 21.226562 188.304688 20.421875 185.667969 19.695312 C 183.027344 18.96875 180.367188 18.324219 177.6875 17.761719 C 175.007812 17.199219 172.3125 16.722656 169.605469 16.324219 C 166.894531 15.925781 164.179688 15.613281 161.449219 15.382812 C 158.722656 15.152344 155.988281 15.003906 153.253906 14.941406 C 150.515625 14.878906 147.777344 14.898438 145.042969 15 C 142.308594 15.105469 139.578125 15.292969 136.851562 15.566406 C 134.128906 15.835938 131.414062 16.191406 128.710938 16.628906 C 126.007812 17.066406 123.324219 17.589844 120.652344 18.191406 C 117.980469 18.792969 115.332031 19.476562 112.703125 20.242188 C 110.074219 21.007812 107.472656 21.851562 104.894531 22.777344 C 102.316406 23.699219 99.769531 24.703125 97.253906 25.78125 C 94.738281 26.863281 92.257812 28.019531 89.816406 29.253906 C 87.371094 30.484375 84.964844 31.789062 82.601562 33.171875 C 80.234375 34.550781 77.914062 36 75.640625 37.523438 C 73.363281 39.042969 71.136719 40.632812 68.957031 42.292969 C 66.78125 43.953125 64.65625 45.675781 62.582031 47.464844 C 60.507812 49.253906 58.492188 51.101562 56.535156 53.015625 C 54.574219 54.925781 52.675781 56.898438 50.835938 58.925781 C 48.996094 60.953125 47.222656 63.035156 45.511719 65.175781 C 43.800781 67.3125 42.15625 69.5 40.578125 71.738281 C 39.003906 73.976562 37.496094 76.257812 36.058594 78.589844 C 34.621094 80.921875 33.257812 83.292969 31.964844 85.707031 C 30.671875 88.121094 29.457031 90.570312 28.316406 93.058594 C 27.175781 95.546875 26.109375 98.070312 25.121094 100.625 C 24.136719 103.175781 23.226562 105.757812 22.398438 108.367188 C 21.570312 110.976562 20.820312 113.609375 20.15625 116.265625 C 19.488281 118.917969 18.902344 121.59375 18.398438 124.285156 C 17.894531 126.976562 17.472656 129.679688 17.136719 132.394531 C 16.796875 135.113281 16.542969 137.835938 16.371094 140.570312 C 16.199219 143.300781 16.113281 146.039062 16.109375 148.773438 C 16.105469 151.511719 16.1875 154.25 16.351562 156.980469 C 16.515625 159.714844 16.761719 162.4375 17.09375 165.15625 C 17.425781 167.875 17.839844 170.578125 18.335938 173.273438 C 18.832031 175.964844 19.410156 178.640625 20.070312 181.296875 C 20.730469 183.953125 21.472656 186.585938 22.296875 189.199219 C 23.117188 191.808594 24.019531 194.394531 25 196.949219 C 25.980469 199.507812 27.039062 202.03125 28.171875 204.519531 C 29.308594 207.011719 30.519531 209.46875 31.804688 211.882812 C 33.089844 214.300781 34.445312 216.675781 35.878906 219.011719 C 37.308594 221.34375 38.808594 223.632812 40.382812 225.875 C 41.953125 228.117188 43.589844 230.308594 45.296875 232.449219 C 47.003906 234.59375 48.773438 236.679688 50.605469 238.714844 C 52.4375 240.746094 54.332031 242.722656 56.289062 244.640625 C 58.242188 246.554688 60.253906 248.410156 62.320312 250.207031 C 64.390625 252 66.511719 253.726562 68.683594 255.390625 C 70.859375 257.054688 73.082031 258.652344 75.355469 260.179688 C 77.625 261.707031 79.941406 263.164062 82.304688 264.550781 C 84.664062 265.9375 87.066406 267.246094 89.507812 268.488281 C 91.949219 269.726562 94.425781 270.886719 96.941406 271.976562 C 99.453125 273.0625 101.996094 274.070312 104.570312 275 C 107.144531 275.933594 109.746094 276.785156 112.371094 277.554688 C 115 278.328125 117.648438 279.019531 120.316406 279.628906 C 122.984375 280.238281 125.671875 280.761719 128.371094 281.207031 C 131.074219 281.652344 133.785156 282.015625 136.511719 282.292969 C 139.234375 282.570312 141.964844 282.765625 144.699219 282.878906 C 147.433594 282.988281 150.171875 283.015625 152.90625 282.960938 C 155.644531 282.90625 158.378906 282.765625 161.105469 282.542969 C 163.835938 282.316406 166.554688 282.011719 169.265625 281.621094 C 171.972656 281.230469 174.667969 280.757812 177.351562 280.199219 C 180.03125 279.644531 182.691406 279.007812 185.335938 278.289062 C 187.976562 277.570312 190.59375 276.773438 193.1875 275.894531 C 195.78125 275.015625 198.34375 274.058594 200.878906 273.019531 C 203.410156 271.984375 205.910156 270.871094 208.378906 269.683594 C 210.84375 268.492188 213.269531 267.230469 215.660156 265.890625 C 218.046875 264.554688 220.394531 263.144531 222.695312 261.664062 C 224.996094 260.179688 227.253906 258.628906 229.460938 257.011719 C 231.667969 255.390625 233.824219 253.703125 235.925781 251.953125 C 238.03125 250.199219 240.078125 248.386719 242.070312 246.507812 C 244.0625 244.632812 245.996094 242.695312 247.871094 240.699219 C 249.746094 238.703125 251.554688 236.652344 253.304688 234.542969 C 255.054688 232.4375 256.734375 230.277344 258.351562 228.070312 C 259.96875 225.859375 261.515625 223.601562 262.992188 221.296875 C 264.46875 218.992188 265.875 216.644531 267.210938 214.253906 C 268.542969 211.863281 269.800781 209.433594 270.988281 206.964844 C 272.171875 204.496094 273.28125 201.996094 274.3125 199.457031 C 275.34375 196.921875 276.296875 194.359375 277.171875 191.761719 C 278.046875 189.167969 278.839844 186.550781 279.554688 183.90625 C 280.269531 181.265625 280.902344 178.601562 281.453125 175.917969 C 282.003906 173.238281 282.472656 170.542969 282.855469 167.832031 C 283.242188 165.121094 283.546875 162.402344 283.765625 159.671875 C 283.984375 156.941406 284.117188 154.210938 284.171875 151.472656 C 284.222656 148.734375 284.191406 146 284.074219 143.261719 C 283.957031 140.527344 283.757812 137.800781 283.472656 135.074219 C 283.191406 132.351562 282.824219 129.640625 282.375 126.941406 C 281.925781 124.238281 281.394531 121.554688 280.78125 118.886719 C 280.167969 116.21875 279.472656 113.570312 278.695312 110.945312 C 277.917969 108.320312 277.0625 105.722656 276.128906 103.148438 Z M 275.617188 103.085938 " fill-opacity="1" fill-rule="nonzero"/></svg>